<?xml version="1.0" encoding="UTF-8" standalone="no"?>
<!DOCTYPE svg PUBLIC "-//W3C//DTD SVG 1.1//EN" "http://www.w3.org/Graphics/SVG/1.1/DTD/svg11.dtd">
<svg xmlns="http://www.w3.org/2000/svg" version="1.1" viewBox="0.00 0.00 224.00 208.00">
<g stroke-width="2.00" fill="none" stroke-linecap="butt">
<path stroke="#a18c88" vector-effect="non-scaling-stroke" d="
  M 142.55 43.75
  L 141.23 47.14
  Q 141.00 47.74 140.40 47.51
  C 138.43 46.75 131.22 45.58 132.64 49.58
  Q 132.81 50.06 133.30 50.16
  L 140.14 51.52
  Q 140.66 51.63 140.57 52.15
  L 140.03 55.43
  Q 139.95 55.92 140.07 56.39
  C 141.60 62.41 146.59 63.16 152.11 63.23
  C 153.30 63.25 154.80 62.68 155.05 61.50
  A 1.34 1.34 0.0 0 0 153.71 59.89
  Q 149.36 59.95 145.27 58.35
  Q 144.71 58.13 144.48 57.57
  Q 143.44 55.04 144.42 52.47
  Q 144.64 51.91 145.22 52.05
  C 146.81 52.44 153.59 53.83 154.09 51.47
  A 0.89 0.88 13.2 0 0 153.44 50.43
  L 145.71 48.44
  Q 145.28 48.33 145.37 47.89
  L 146.01 44.70
  Q 146.14 44.06 146.78 44.16
  L 156.14 45.53
  A 0.41 0.41 0.0 0 0 156.53 44.89
  C 153.20 40.18 142.16 39.00 136.76 38.43
  C 135.27 38.28 131.43 38.86 132.72 41.13
  Q 132.99 41.62 133.54 41.71
  L 142.21 43.16
  Q 142.74 43.25 142.55 43.75"
/>
<path stroke="#a18c88" vector-effect="non-scaling-stroke" d="
  M 197.93 55.05
  A 0.60 0.59 24.7 0 1 198.27 55.96
  Q 194.02 62.29 188.15 67.15
  A 0.48 0.47 -62.6 0 0 188.41 67.99
  C 194.41 68.42 202.29 60.38 202.78 54.59
  Q 202.82 54.10 202.57 53.68
  C 200.81 50.72 184.40 47.16 181.58 49.01
  Q 181.14 49.29 181.18 49.82
  Q 181.41 52.81 184.58 52.98
  Q 191.48 53.36 197.93 55.05"
/>
<path stroke="#a18c88" vector-effect="non-scaling-stroke" d="
  M 164.9542 63.2984
  A 2.89 1.66 91.9 0 0 166.7091 60.4650
  A 2.89 1.66 91.9 0 0 165.1458 57.5216
  A 2.89 1.66 91.9 0 0 163.3909 60.3550
  A 2.89 1.66 91.9 0 0 164.9542 63.2984"
/>
<path stroke="#a18c88" vector-effect="non-scaling-stroke" d="
  M 169.17 63.38
  Q 169.59 64.82 170.90 64.09
  C 172.57 63.15 173.44 59.45 170.70 58.78
  Q 170.13 58.64 169.81 59.12
  Q 168.49 61.07 169.17 63.38"
/>
<path stroke="#a18c88" vector-effect="non-scaling-stroke" d="
  M 180.11 63.37
  L 178.72 61.48
  A 0.53 0.53 0.0 0 0 177.98 61.37
  L 177.12 62.00
  A 12.11 1.70 -36.4 0 0 168.39 70.55
  L 168.39 70.55
  A 12.11 1.70 -36.4 0 0 179.14 64.74
  L 180.00 64.11
  A 0.53 0.53 0.0 0 0 180.11 63.37"
/>
<path stroke="#fffcd6" vector-effect="non-scaling-stroke" d="
  M 46.29 105.65
  L 43.50 106.54"
/>
<path stroke="#a29087" vector-effect="non-scaling-stroke" d="
  M 43.50 106.54
  Q 41.11 106.80 39.71 108.75"
/>
<path stroke="#fffcd6" vector-effect="non-scaling-stroke" d="
  M 39.71 108.75
  Q 37.76 110.44 35.29 110.50"
/>
<path stroke="#a29087" vector-effect="non-scaling-stroke" d="
  M 35.29 110.50
  Q 35.04 110.06 34.52 109.88
  Q 34.05 109.72 33.62 109.94
  Q 22.44 115.66 16.05 126.57
  C 10.72 135.68 3.64 150.34 5.57 159.94
  C 8.61 175.06 13.13 186.01 28.74 191.61
  Q 29.72 191.96 30.30 192.77
  Q 30.58 193.16 31.04 193.29
  Q 44.69 197.10 52.99 196.75
  Q 55.24 196.66 62.75 195.21"
/>
<path stroke="#ffebbd" vector-effect="non-scaling-stroke" d="
  M 62.75 195.21
  L 64.21 195.25"
/>
<path stroke="#a29087" vector-effect="non-scaling-stroke" d="
  M 64.21 195.25
  C 66.72 198.48 78.71 198.71 82.35 197.58
  Q 84.18 197.02 86.00 197.47
  C 94.90 199.70 104.34 198.35 112.49 194.43
  C 113.22 194.08 114.12 193.06 115.10 192.75
  Q 115.65 192.58 116.15 192.85
  Q 119.68 194.69 123.66 194.85
  Q 124.16 194.87 124.55 195.18
  C 129.02 198.69 139.88 198.11 146.11 197.77
  C 150.06 197.56 154.82 198.73 158.67 196.68
  Q 159.12 196.44 159.62 196.46
  C 165.53 196.68 171.47 195.58 177.27 196.38
  C 182.22 197.07 204.94 197.18 206.54 191.98
  C 207.46 188.99 203.60 187.30 200.99 186.67
  Q 200.39 186.52 200.79 186.06
  Q 208.65 177.09 205.04 165.52
  Q 204.87 164.99 205.42 164.89
  Q 211.63 163.81 215.82 159.08
  C 222.68 151.33 213.28 142.41 206.41 139.00
  Q 205.90 138.75 205.98 138.19
  Q 206.93 131.13 205.99 127.50
  C 202.34 113.32 199.40 101.97 186.96 93.47
  C 181.61 89.81 171.24 86.46 165.26 85.72
  C 147.97 83.58 124.16 89.07 114.89 105.61
  A 1.59 1.59 0.0 0 1 112.39 105.98
  C 95.81 90.04 69.99 89.10 50.74 100.36
  C 48.29 101.80 46.62 102.31 46.29 105.65"
/>
<path stroke="#a27c45" vector-effect="non-scaling-stroke" d="
  M 64.21 195.25
  Q 67.55 188.56 75.80 189.41
  C 78.41 189.68 85.55 190.61 84.73 194.45
  Q 84.48 195.62 85.68 195.68
  C 100.45 196.41 119.32 194.49 120.26 175.21
  A 0.68 0.68 0.0 0 1 121.12 174.59
  Q 121.70 174.74 121.81 175.49
  Q 123.08 184.07 117.54 190.32
  A 0.60 0.60 0.0 0 0 117.84 191.30
  L 127.25 193.71"
/>
<path stroke="#9c642e" vector-effect="non-scaling-stroke" d="
  M 127.25 193.71
  Q 135.31 195.45 143.54 195.15
  Q 144.01 195.13 144.40 194.86
  Q 144.57 194.73 144.70 194.65
  A 0.90 0.90 0.0 0 0 144.84 193.27
  Q 137.24 185.55 129.03 192.59
  Q 128.66 192.91 127.54 193.00"
/>
<path stroke="#a27c45" vector-effect="non-scaling-stroke" d="
  M 127.54 193.00
  C 133.32 184.40 143.79 188.49 149.19 194.78
  Q 149.51 195.15 149.99 195.21
  Q 153.81 195.70 156.94 195.44
  Q 165.67 194.70 184.75 192.79
  Q 187.67 192.49 193.57 188.44"
/>
<path stroke="#a28d5d" vector-effect="non-scaling-stroke" d="
  M 193.57 188.44
  C 201.75 183.01 205.83 173.64 201.90 164.21
  A 1.87 1.86 -15.0 0 1 203.38 161.65
  C 208.54 160.98 218.71 156.96 213.93 149.63
  Q 210.21 143.94 203.77 141.33
  Q 203.31 141.15 203.39 140.66
  Q 204.47 134.70 203.50 129.26
  C 199.78 108.58 192.13 94.39 170.45 89.19
  Q 150.73 84.47 131.43 94.04"
/>
<path stroke="#a27c45" vector-effect="non-scaling-stroke" d="
  M 131.43 94.04
  Q 122.76 98.80 116.07 107.19
  Q 115.12 108.39 116.34 109.31
  C 118.88 111.21 120.92 113.56 122.56 116.49
  C 129.80 129.45 132.10 140.94 127.55 155.32
  C 126.79 157.71 125.14 158.27 124.98 161.19
  Q 124.68 166.74 121.13 171.58
  A 0.62 0.62 0.0 0 1 120.04 171.00
  Q 122.02 165.36 122.96 159.00"
/>
<path stroke="#a28d5d" vector-effect="non-scaling-stroke" d="
  M 122.96 159.00
  C 128.98 144.57 127.21 131.08 120.05 117.92
  C 117.20 112.68 107.25 104.73 104.22 103.00
  C 86.65 93.00 69.76 93.74 52.17 102.82
  Q 49.29 104.31 46.29 105.65"
/>
<path stroke="#ffe894" vector-effect="non-scaling-stroke" d="
  M 193.57 188.44
  Q 192.03 187.13 191.99 185.47
  Q 191.90 182.25 192.76 178.14
  C 194.00 172.28 188.48 163.68 185.33 159.07
  Q 185.06 158.66 184.61 158.44
  C 178.58 155.55 170.71 149.91 167.99 143.64
  C 167.10 141.59 165.73 140.48 164.79 138.49
  Q 164.26 137.35 163.48 136.33
  Q 163.18 135.94 163.24 135.45
  L 164.01 129.25
  Q 164.06 128.78 163.85 128.35
  Q 162.33 125.39 164.16 122.30"
/>
<path stroke="#dfb964" vector-effect="non-scaling-stroke" d="
  M 164.16 122.30
  Q 169.70 125.51 175.68 125.73
  Q 176.16 125.74 176.30 125.28
  C 178.73 117.36 165.55 114.00 161.46 119.50"
/>
<path stroke="#ffe894" vector-effect="non-scaling-stroke" d="
  M 161.46 119.50
  Q 157.42 120.20 154.86 117.08"
/>
<path stroke="#a1895e" vector-effect="non-scaling-stroke" d="
  M 154.86 117.08
  C 156.54 116.69 157.60 115.39 155.66 114.32
  Q 152.85 112.76 149.29 114.11"
/>
<path stroke="#ffe894" vector-effect="non-scaling-stroke" d="
  M 149.29 114.11
  L 137.90 108.13
  A 2.85 2.84 19.5 0 1 136.43 105.05
  Q 137.07 101.88 134.90 99.74
  Q 134.51 99.35 134.54 98.80
  Q 134.62 97.02 132.85 96.79
  Q 132.31 96.72 132.14 96.20
  L 131.43 94.04"
/>
<path stroke="#a28d5d" vector-effect="non-scaling-stroke" d="
  M 96.14 156.04
  C 96.30 154.80 95.98 154.76 95.23 154.19
  C 89.51 149.86 80.43 147.77 74.75 153.04"
/>
<path stroke="#a28d5d" vector-effect="non-scaling-stroke" d="
  M 72.21 152.50
  C 76.83 142.42 59.53 130.63 58.52 134.95"
/>
<path stroke="#a28d5d" vector-effect="non-scaling-stroke" d="
  M 9.10 162.77
  Q 7.18 142.53 20.06 125.27
  Q 26.71 116.35 34.62 111.92
  C 35.22 111.58 35.35 111.14 35.29 110.50"
/>
<path stroke="#a28d5d" vector-effect="non-scaling-stroke" d="
  M 39.71 108.75
  Q 42.48 109.12 43.50 106.54"
/>
<path stroke="#a07846" vector-effect="non-scaling-stroke" d="
  M 149.29 114.11
  Q 149.49 118.61 154.86 117.08"
/>
<path stroke="#dea84c" vector-effect="non-scaling-stroke" d="
  M 161.46 119.50
  Q 162.63 121.38 164.16 122.30"
/>
<path stroke="#f9bf64" vector-effect="non-scaling-stroke" d="
  M 127.54 193.00
  L 127.25 193.71"
/>
<path stroke="#a27c45" vector-effect="non-scaling-stroke" d="
  M 62.75 195.21
  C 62.62 193.23 58.93 193.65 57.45 193.35
  Q 56.95 193.24 56.77 192.77
  C 53.28 183.78 43.52 185.89 36.58 189.34
  Q 35.99 189.63 35.05 191.07
  Q 34.76 191.51 34.27 191.32
  C 26.71 188.35 18.27 183.37 14.42 175.94
  Q 11.18 169.69 9.10 162.77"
/>
<path stroke="#ffe894" vector-effect="non-scaling-stroke" d="
  M 9.10 162.77
  L 11.66 163.18
  Q 12.18 163.27 12.49 162.84
  C 14.03 160.69 20.26 153.33 23.02 153.50
  C 30.91 153.99 32.55 150.24 38.41 146.97
  Q 42.03 144.95 45.88 143.37
  C 47.33 142.77 47.69 141.98 48.81 140.98
  Q 49.21 140.63 49.70 140.84
  C 53.67 142.57 54.16 139.47 55.69 136.94
  Q 55.94 136.53 56.40 136.40
  Q 57.61 136.05 58.52 134.95"
/>
<path stroke="#a27c45" vector-effect="non-scaling-stroke" d="
  M 58.52 134.95
  C 64.03 137.31 71.32 143.41 70.08 150.04
  C 68.26 159.81 51.68 155.07 46.13 151.58
  Q 45.12 150.94 45.48 152.08
  Q 46.24 154.45 49.22 155.84
  C 56.55 159.25 67.58 160.99 72.21 152.50"
/>
<path stroke="#ffe894" vector-effect="non-scaling-stroke" d="
  M 72.21 152.50
  L 74.75 153.04"
/>
<path stroke="#a27c45" vector-effect="non-scaling-stroke" d="
  M 74.75 153.04
  C 65.49 160.44 77.51 171.75 85.00 174.11
  A 0.40 0.40 0.0 0 0 85.38 173.42
  C 80.81 169.56 73.13 165.04 74.71 157.74
  C 76.63 148.88 90.27 153.35 96.14 156.04"
/>
<path stroke="#ffe894" vector-effect="non-scaling-stroke" d="
  M 96.14 156.04
  Q 97.74 156.52 98.36 157.96
  C 99.79 161.27 102.17 165.52 106.02 166.43
  Q 108.68 167.06 109.23 164.75
  Q 109.39 164.08 110.07 163.99
  L 114.42 163.38
  Q 114.94 163.31 115.35 163.00
  L 120.41 159.19
  Q 120.74 158.94 121.16 158.95
  L 122.96 159.00"
/>
<path stroke="#a29087" vector-effect="non-scaling-stroke" d="
  M 5.37 119.97
  C 11.88 109.34 22.39 102.63 33.62 97.38
  Q 34.11 97.15 34.45 96.73
  L 35.05 95.99
  A 0.32 0.32 0.0 0 0 34.71 95.48
  C 23.39 99.00 7.82 107.40 4.63 119.66
  A 0.41 0.40 -22.1 0 0 5.37 119.97"
/>
<path stroke="#a29087" vector-effect="non-scaling-stroke" d="
  M 4.20 106.92
  L 19.68 97.61
  A 0.36 0.36 0.0 0 0 19.43 96.94
  C 16.45 97.43 2.93 102.43 3.25 106.61
  Q 3.31 107.45 4.20 106.92"
/>
<path stroke="#a29087" vector-effect="non-scaling-stroke" d="
  M 208.53 105.17
  C 211.63 111.62 212.45 118.47 213.31 125.63
  A 0.47 0.47 0.0 0 0 214.24 125.65
  C 215.32 119.41 214.57 109.28 209.42 104.52
  A 0.56 0.56 0.0 0 0 208.53 105.17"
/>
<path stroke="#a29087" vector-effect="non-scaling-stroke" d="
  M 219.46 106.14
  L 217.97 106.46
  A 0.29 0.29 0.0 0 0 217.75 106.80
  L 219.71 116.09
  A 3.13 0.89 78.1 0 0 221.23 118.97
  L 221.54 118.91
  A 3.13 0.89 78.1 0 0 221.76 115.66
  L 219.81 106.37
  A 0.29 0.29 0.0 0 0 219.46 106.14"
/>
<path stroke="#9c642e" vector-effect="non-scaling-stroke" d="
  M 197.35 189.18
  C 194.52 191.15 193.34 191.80 190.91 193.05
  Q 190.16 193.43 191.00 193.42
  C 196.09 193.35 200.27 193.75 203.59 191.42
  Q 204.03 191.11 203.69 190.69
  Q 200.62 186.90 197.35 189.18"
/>
<path stroke="#9c642e" vector-effect="non-scaling-stroke" d="
  M 68.18 194.71
  C 71.58 195.79 78.67 196.88 81.78 195.10
  A 1.19 1.19 0.0 0 0 81.74 193.01
  C 77.52 190.80 71.61 189.97 68.03 194.19
  Q 67.71 194.56 68.18 194.71"
/>
<path stroke="#a1895e" vector-effect="non-scaling-stroke" d="
  M 186.7059 129.0362
  A 3.36 1.82 38.6 0 0 185.2155 125.5176
  A 3.36 1.82 38.6 0 0 181.4541 124.8438
  A 3.36 1.82 38.6 0 0 182.9445 128.3624
  A 3.36 1.82 38.6 0 0 186.7059 129.0362"
/>
<path stroke="#ffe894" vector-effect="non-scaling-stroke" d="
  M 147.17 130.32
  L 150.50 131.57
  Q 150.90 131.72 151.32 131.63
  C 156.07 130.59 152.37 122.96 150.57 120.42
  Q 150.32 120.06 149.92 119.86
  C 147.55 118.68 145.43 116.71 142.10 115.80
  Q 141.38 115.60 141.14 116.31
  L 139.81 120.20
  Q 139.64 120.68 139.87 121.13
  C 140.83 123.08 143.44 131.38 146.15 130.33
  Q 146.66 130.13 147.17 130.32"
/>
<path stroke="#a27c45" vector-effect="non-scaling-stroke" d="
  M 157.82 150.28
  C 155.21 154.94 145.30 155.84 139.99 155.63
  Q 138.35 155.56 138.86 157.51
  Q 138.97 157.94 139.39 158.10
  C 151.08 162.62 172.44 150.04 155.13 137.72
  Q 150.00 134.07 143.42 133.09
  Q 141.50 132.80 141.82 134.71
  Q 141.96 135.50 143.02 135.65
  C 148.28 136.40 162.14 142.56 157.82 150.28"
/>
<path stroke="#a1895e" vector-effect="non-scaling-stroke" d="
  M 83.4100 116.8050
  A 3.01 2.67 -16.9 0 0 79.7538 115.1253
  A 3.01 2.67 -16.9 0 0 77.6500 118.5550
  A 3.01 2.67 -16.9 0 0 81.3062 120.2347
  A 3.01 2.67 -16.9 0 0 83.4100 116.8050"
/>
<path stroke="#dfb964" vector-effect="non-scaling-stroke" d="
  M 87.55 126.68
  C 89.35 130.05 92.47 132.19 95.63 134.17
  Q 96.03 134.42 96.33 134.06
  C 101.47 128.01 93.45 124.12 88.49 124.82
  A 1.27 1.27 0.0 0 0 87.55 126.68"
/>
<path stroke="#a1895e" vector-effect="non-scaling-stroke" d="
  M 107.89 139.03
  A 2.72 2.72 0.0 0 0 105.17 136.31
  A 2.72 2.72 0.0 0 0 102.45 139.03
  A 2.72 2.72 0.0 0 0 105.17 141.75
  A 2.72 2.72 0.0 0 0 107.89 139.03"
/>
<path stroke="#9c642e" vector-effect="non-scaling-stroke" d="
  M 53.90 192.05
  C 52.91 187.07 39.93 189.43 37.12 191.66
  A 0.31 0.31 0.0 0 0 37.24 192.21
  Q 44.90 194.19 52.71 193.61
  A 1.31 1.31 0.0 0 0 53.90 192.05"
/>
<path stroke="#d99035" vector-effect="non-scaling-stroke" d="
  M 174.2047 122.8128
  A 4.11 1.05 20.7 0 0 170.7311 120.3778
  A 4.11 1.05 20.7 0 0 166.5153 119.9072
  A 4.11 1.05 20.7 0 0 169.9889 122.3422
  A 4.11 1.05 20.7 0 0 174.2047 122.8128"
/>
<path stroke="#d99035" vector-effect="non-scaling-stroke" d="
  M 90.20 127.24
  L 95.35 131.86
  A 0.16 0.16 0.0 0 0 95.58 131.85
  L 95.60 131.82
  A 3.45 2.00 41.9 0 0 94.37 128.02
  L 94.12 127.80
  A 3.45 2.00 41.9 0 0 90.21 126.98
  L 90.19 127.01
  A 0.16 0.16 0.0 0 0 90.20 127.24"
/>
</g>
<path fill="#ffffff" d="
  M 0.00 0.00
  L 224.00 0.00
  L 224.00 208.00
  L 0.00 208.00
  L 0.00 0.00
  Z
  M 142.55 43.75
  L 141.23 47.14
  Q 141.00 47.74 140.40 47.51
  C 138.43 46.75 131.22 45.58 132.64 49.58
  Q 132.81 50.06 133.30 50.16
  L 140.14 51.52
  Q 140.66 51.63 140.57 52.15
  L 140.03 55.43
  Q 139.95 55.92 140.07 56.39
  C 141.60 62.41 146.59 63.16 152.11 63.23
  C 153.30 63.25 154.80 62.68 155.05 61.50
  A 1.34 1.34 0.0 0 0 153.71 59.89
  Q 149.36 59.95 145.27 58.35
  Q 144.71 58.13 144.48 57.57
  Q 143.44 55.04 144.42 52.47
  Q 144.64 51.91 145.22 52.05
  C 146.81 52.44 153.59 53.83 154.09 51.47
  A 0.89 0.88 13.2 0 0 153.44 50.43
  L 145.71 48.44
  Q 145.28 48.33 145.37 47.89
  L 146.01 44.70
  Q 146.14 44.06 146.78 44.16
  L 156.14 45.53
  A 0.41 0.41 0.0 0 0 156.53 44.89
  C 153.20 40.18 142.16 39.00 136.76 38.43
  C 135.27 38.28 131.43 38.86 132.72 41.13
  Q 132.99 41.62 133.54 41.71
  L 142.21 43.16
  Q 142.74 43.25 142.55 43.75
  Z
  M 197.93 55.05
  A 0.60 0.59 24.7 0 1 198.27 55.96
  Q 194.02 62.29 188.15 67.15
  A 0.48 0.47 -62.6 0 0 188.41 67.99
  C 194.41 68.42 202.29 60.38 202.78 54.59
  Q 202.82 54.10 202.57 53.68
  C 200.81 50.72 184.40 47.16 181.58 49.01
  Q 181.14 49.29 181.18 49.82
  Q 181.41 52.81 184.58 52.98
  Q 191.48 53.36 197.93 55.05
  Z
  M 164.9542 63.2984
  A 2.89 1.66 91.9 0 0 166.7091 60.4650
  A 2.89 1.66 91.9 0 0 165.1458 57.5216
  A 2.89 1.66 91.9 0 0 163.3909 60.3550
  A 2.89 1.66 91.9 0 0 164.9542 63.2984
  Z
  M 169.17 63.38
  Q 169.59 64.82 170.90 64.09
  C 172.57 63.15 173.44 59.45 170.70 58.78
  Q 170.13 58.64 169.81 59.12
  Q 168.49 61.07 169.17 63.38
  Z
  M 180.11 63.37
  L 178.72 61.48
  A 0.53 0.53 0.0 0 0 177.98 61.37
  L 177.12 62.00
  A 12.11 1.70 -36.4 0 0 168.39 70.55
  L 168.39 70.55
  A 12.11 1.70 -36.4 0 0 179.14 64.74
  L 180.00 64.11
  A 0.53 0.53 0.0 0 0 180.11 63.37
  Z
  M 46.29 105.65
  L 43.50 106.54
  Q 41.11 106.80 39.71 108.75
  Q 37.76 110.44 35.29 110.50
  Q 35.04 110.06 34.52 109.88
  Q 34.05 109.72 33.62 109.94
  Q 22.44 115.66 16.05 126.57
  C 10.72 135.68 3.64 150.34 5.57 159.94
  C 8.61 175.06 13.13 186.01 28.74 191.61
  Q 29.72 191.96 30.30 192.77
  Q 30.58 193.16 31.04 193.29
  Q 44.69 197.10 52.99 196.75
  Q 55.24 196.66 62.75 195.21
  L 64.21 195.25
  C 66.72 198.48 78.71 198.71 82.35 197.58
  Q 84.18 197.02 86.00 197.47
  C 94.90 199.70 104.34 198.35 112.49 194.43
  C 113.22 194.08 114.12 193.06 115.10 192.75
  Q 115.65 192.58 116.15 192.85
  Q 119.68 194.69 123.66 194.85
  Q 124.16 194.87 124.55 195.18
  C 129.02 198.69 139.88 198.11 146.11 197.77
  C 150.06 197.56 154.82 198.73 158.67 196.68
  Q 159.12 196.44 159.62 196.46
  C 165.53 196.68 171.47 195.58 177.27 196.38
  C 182.22 197.07 204.94 197.18 206.54 191.98
  C 207.46 188.99 203.60 187.30 200.99 186.67
  Q 200.39 186.52 200.79 186.06
  Q 208.65 177.09 205.04 165.52
  Q 204.87 164.99 205.42 164.89
  Q 211.63 163.81 215.82 159.08
  C 222.68 151.33 213.28 142.41 206.41 139.00
  Q 205.90 138.75 205.98 138.19
  Q 206.93 131.13 205.99 127.50
  C 202.34 113.32 199.40 101.97 186.96 93.47
  C 181.61 89.81 171.24 86.46 165.26 85.72
  C 147.97 83.58 124.16 89.07 114.89 105.61
  A 1.59 1.59 0.0 0 1 112.39 105.98
  C 95.81 90.04 69.99 89.10 50.74 100.36
  C 48.29 101.80 46.62 102.31 46.29 105.65
  Z
  M 5.37 119.97
  C 11.88 109.34 22.39 102.63 33.62 97.38
  Q 34.11 97.15 34.45 96.73
  L 35.05 95.99
  A 0.32 0.32 0.0 0 0 34.71 95.48
  C 23.39 99.00 7.82 107.40 4.63 119.66
  A 0.41 0.40 -22.1 0 0 5.37 119.97
  Z
  M 4.20 106.92
  L 19.68 97.61
  A 0.36 0.36 0.0 0 0 19.43 96.94
  C 16.45 97.43 2.93 102.43 3.25 106.61
  Q 3.31 107.45 4.20 106.92
  Z
  M 208.53 105.17
  C 211.63 111.62 212.45 118.47 213.31 125.63
  A 0.47 0.47 0.0 0 0 214.24 125.65
  C 215.32 119.41 214.57 109.28 209.42 104.52
  A 0.56 0.56 0.0 0 0 208.53 105.17
  Z
  M 219.46 106.14
  L 217.97 106.46
  A 0.29 0.29 0.0 0 0 217.75 106.80
  L 219.71 116.09
  A 3.13 0.89 78.1 0 0 221.23 118.97
  L 221.54 118.91
  A 3.13 0.89 78.1 0 0 221.76 115.66
  L 219.81 106.37
  A 0.29 0.29 0.0 0 0 219.46 106.14
  Z"
/>
<path fill="#421910" d="
  M 142.21 43.16
  L 133.54 41.71
  Q 132.99 41.62 132.72 41.13
  C 131.43 38.86 135.27 38.28 136.76 38.43
  C 142.16 39.00 153.20 40.18 156.53 44.89
  A 0.41 0.41 0.0 0 1 156.14 45.53
  L 146.78 44.16
  Q 146.14 44.06 146.01 44.70
  L 145.37 47.89
  Q 145.28 48.33 145.71 48.44
  L 153.44 50.43
  A 0.89 0.88 13.2 0 1 154.09 51.47
  C 153.59 53.83 146.81 52.44 145.22 52.05
  Q 144.64 51.91 144.42 52.47
  Q 143.44 55.04 144.48 57.57
  Q 144.71 58.13 145.27 58.35
  Q 149.36 59.95 153.71 59.89
  A 1.34 1.34 0.0 0 1 155.05 61.50
  C 154.80 62.68 153.30 63.25 152.11 63.23
  C 146.59 63.16 141.60 62.41 140.07 56.39
  Q 139.95 55.92 140.03 55.43
  L 140.57 52.15
  Q 140.66 51.63 140.14 51.52
  L 133.30 50.16
  Q 132.81 50.06 132.64 49.58
  C 131.22 45.58 138.43 46.75 140.40 47.51
  Q 141.00 47.74 141.23 47.14
  L 142.55 43.75
  Q 142.74 43.25 142.21 43.16
  Z"
/>
<path fill="#421910" d="
  M 197.93 55.05
  Q 191.48 53.36 184.58 52.98
  Q 181.41 52.81 181.18 49.82
  Q 181.14 49.29 181.58 49.01
  C 184.40 47.16 200.81 50.72 202.57 53.68
  Q 202.82 54.10 202.78 54.59
  C 202.29 60.38 194.41 68.42 188.41 67.99
  A 0.48 0.47 -62.6 0 1 188.15 67.15
  Q 194.02 62.29 198.27 55.96
  A 0.60 0.59 24.7 0 0 197.93 55.05
  Z"
/>
<ellipse fill="#421910" cx="0.00" cy="0.00" transform="translate(165.05,60.41) rotate(91.9)" rx="2.89" ry="1.66"/>
<path fill="#421910" d="
  M 169.17 63.38
  Q 168.49 61.07 169.81 59.12
  Q 170.13 58.64 170.70 58.78
  C 173.44 59.45 172.57 63.15 170.90 64.09
  Q 169.59 64.82 169.17 63.38
  Z"
/>
<path fill="#421910" d="
  M 180.11 63.37
  A 0.53 0.53 0.0 0 1 180.00 64.11
  L 179.14 64.74
  A 12.11 1.70 -36.4 0 1 168.39 70.55
  L 168.39 70.55
  A 12.11 1.70 -36.4 0 1 177.12 62.00
  L 177.98 61.37
  A 0.53 0.53 0.0 0 1 178.72 61.48
  L 180.11 63.37
  Z"
/>
<path fill="#45210e" d="
  M 64.21 195.25
  Q 67.55 188.56 75.80 189.41
  C 78.41 189.68 85.55 190.61 84.73 194.45
  Q 84.48 195.62 85.68 195.68
  C 100.45 196.41 119.32 194.49 120.26 175.21
  A 0.68 0.68 0.0 0 1 121.12 174.59
  Q 121.70 174.74 121.81 175.49
  Q 123.08 184.07 117.54 190.32
  A 0.60 0.60 0.0 0 0 117.84 191.30
  L 127.25 193.71
  Q 135.31 195.45 143.54 195.15
  Q 144.01 195.13 144.40 194.86
  Q 144.57 194.73 144.70 194.65
  A 0.90 0.90 0.0 0 0 144.84 193.27
  Q 137.24 185.55 129.03 192.59
  Q 128.66 192.91 127.54 193.00
  C 133.32 184.40 143.79 188.49 149.19 194.78
  Q 149.51 195.15 149.99 195.21
  Q 153.81 195.70 156.94 195.44
  Q 165.67 194.70 184.75 192.79
  Q 187.67 192.49 193.57 188.44
  C 201.75 183.01 205.83 173.64 201.90 164.21
  A 1.87 1.86 -15.0 0 1 203.38 161.65
  C 208.54 160.98 218.71 156.96 213.93 149.63
  Q 210.21 143.94 203.77 141.33
  Q 203.31 141.15 203.39 140.66
  Q 204.47 134.70 203.50 129.26
  C 199.78 108.58 192.13 94.39 170.45 89.19
  Q 150.73 84.47 131.43 94.04
  Q 122.76 98.80 116.07 107.19
  Q 115.12 108.39 116.34 109.31
  C 118.88 111.21 120.92 113.56 122.56 116.49
  C 129.80 129.45 132.10 140.94 127.55 155.32
  C 126.79 157.71 125.14 158.27 124.98 161.19
  Q 124.68 166.74 121.13 171.58
  A 0.62 0.62 0.0 0 1 120.04 171.00
  Q 122.02 165.36 122.96 159.00
  C 128.98 144.57 127.21 131.08 120.05 117.92
  C 117.20 112.68 107.25 104.73 104.22 103.00
  C 86.65 93.00 69.76 93.74 52.17 102.82
  Q 49.29 104.31 46.29 105.65
  C 46.62 102.31 48.29 101.80 50.74 100.36
  C 69.99 89.10 95.81 90.04 112.39 105.98
  A 1.59 1.59 0.0 0 0 114.89 105.61
  C 124.16 89.07 147.97 83.58 165.26 85.72
  C 171.24 86.46 181.61 89.81 186.96 93.47
  C 199.40 101.97 202.34 113.32 205.99 127.50
  Q 206.93 131.13 205.98 138.19
  Q 205.90 138.75 206.41 139.00
  C 213.28 142.41 222.68 151.33 215.82 159.08
  Q 211.63 163.81 205.42 164.89
  Q 204.87 164.99 205.04 165.52
  Q 208.65 177.09 200.79 186.06
  Q 200.39 186.52 200.99 186.67
  C 203.60 187.30 207.46 188.99 206.54 191.98
  C 204.94 197.18 182.22 197.07 177.27 196.38
  C 171.47 195.58 165.53 196.68 159.62 196.46
  Q 159.12 196.44 158.67 196.68
  C 154.82 198.73 150.06 197.56 146.11 197.77
  C 139.88 198.11 129.02 198.69 124.55 195.18
  Q 124.16 194.87 123.66 194.85
  Q 119.68 194.69 116.15 192.85
  Q 115.65 192.58 115.10 192.75
  C 114.12 193.06 113.22 194.08 112.49 194.43
  C 104.34 198.35 94.90 199.70 86.00 197.47
  Q 84.18 197.02 82.35 197.58
  C 78.71 198.71 66.72 198.48 64.21 195.25
  Z
  M 197.35 189.18
  C 194.52 191.15 193.34 191.80 190.91 193.05
  Q 190.16 193.43 191.00 193.42
  C 196.09 193.35 200.27 193.75 203.59 191.42
  Q 204.03 191.11 203.69 190.69
  Q 200.62 186.90 197.35 189.18
  Z
  M 68.18 194.71
  C 71.58 195.79 78.67 196.88 81.78 195.10
  A 1.19 1.19 0.0 0 0 81.74 193.01
  C 77.52 190.80 71.61 189.97 68.03 194.19
  Q 67.71 194.56 68.18 194.71
  Z"
/>
<path fill="#fff9ac" d="
  M 193.57 188.44
  Q 192.03 187.13 191.99 185.47
  Q 191.90 182.25 192.76 178.14
  C 194.00 172.28 188.48 163.68 185.33 159.07
  Q 185.06 158.66 184.61 158.44
  C 178.58 155.55 170.71 149.91 167.99 143.64
  C 167.10 141.59 165.73 140.48 164.79 138.49
  Q 164.26 137.35 163.48 136.33
  Q 163.18 135.94 163.24 135.45
  L 164.01 129.25
  Q 164.06 128.78 163.85 128.35
  Q 162.33 125.39 164.16 122.30
  Q 169.70 125.51 175.68 125.73
  Q 176.16 125.74 176.30 125.28
  C 178.73 117.36 165.55 114.00 161.46 119.50
  Q 157.42 120.20 154.86 117.08
  C 156.54 116.69 157.60 115.39 155.66 114.32
  Q 152.85 112.76 149.29 114.11
  L 137.90 108.13
  A 2.85 2.84 19.5 0 1 136.43 105.05
  Q 137.07 101.88 134.90 99.74
  Q 134.51 99.35 134.54 98.80
  Q 134.62 97.02 132.85 96.79
  Q 132.31 96.72 132.14 96.20
  L 131.43 94.04
  Q 150.73 84.47 170.45 89.19
  C 192.13 94.39 199.78 108.58 203.50 129.26
  Q 204.47 134.70 203.39 140.66
  Q 203.31 141.15 203.77 141.33
  Q 210.21 143.94 213.93 149.63
  C 218.71 156.96 208.54 160.98 203.38 161.65
  A 1.87 1.86 -15.0 0 0 201.90 164.21
  C 205.83 173.64 201.75 183.01 193.57 188.44
  Z
  M 186.7059 129.0362
  A 3.36 1.82 38.6 0 0 185.2155 125.5176
  A 3.36 1.82 38.6 0 0 181.4541 124.8438
  A 3.36 1.82 38.6 0 0 182.9445 128.3624
  A 3.36 1.82 38.6 0 0 186.7059 129.0362
  Z"
/>
<path fill="#fed67b" d="
  M 131.43 94.04
  L 132.14 96.20
  Q 132.31 96.72 132.85 96.79
  Q 134.62 97.02 134.54 98.80
  Q 134.51 99.35 134.90 99.74
  Q 137.07 101.88 136.43 105.05
  A 2.85 2.84 19.5 0 0 137.90 108.13
  L 149.29 114.11
  Q 149.49 118.61 154.86 117.08
  Q 157.42 120.20 161.46 119.50
  Q 162.63 121.38 164.16 122.30
  Q 162.33 125.39 163.85 128.35
  Q 164.06 128.78 164.01 129.25
  L 163.24 135.45
  Q 163.18 135.94 163.48 136.33
  Q 164.26 137.35 164.79 138.49
  C 165.73 140.48 167.10 141.59 167.99 143.64
  C 170.71 149.91 178.58 155.55 184.61 158.44
  Q 185.06 158.66 185.33 159.07
  C 188.48 163.68 194.00 172.28 192.76 178.14
  Q 191.90 182.25 191.99 185.47
  Q 192.03 187.13 193.57 188.44
  Q 187.67 192.49 184.75 192.79
  Q 165.67 194.70 156.94 195.44
  Q 153.81 195.70 149.99 195.21
  Q 149.51 195.15 149.19 194.78
  C 143.79 188.49 133.32 184.40 127.54 193.00
  L 127.25 193.71
  L 117.84 191.30
  A 0.60 0.60 0.0 0 1 117.54 190.32
  Q 123.08 184.07 121.81 175.49
  Q 121.70 174.74 121.12 174.59
  A 0.68 0.68 0.0 0 0 120.26 175.21
  C 119.32 194.49 100.45 196.41 85.68 195.68
  Q 84.48 195.62 84.73 194.45
  C 85.55 190.61 78.41 189.68 75.80 189.41
  Q 67.55 188.56 64.21 195.25
  L 62.75 195.21
  C 62.62 193.23 58.93 193.65 57.45 193.35
  Q 56.95 193.24 56.77 192.77
  C 53.28 183.78 43.52 185.89 36.58 189.34
  Q 35.99 189.63 35.05 191.07
  Q 34.76 191.51 34.27 191.32
  C 26.71 188.35 18.27 183.37 14.42 175.94
  Q 11.18 169.69 9.10 162.77
  L 11.66 163.18
  Q 12.18 163.27 12.49 162.84
  C 14.03 160.69 20.26 153.33 23.02 153.50
  C 30.91 153.99 32.55 150.24 38.41 146.97
  Q 42.03 144.95 45.88 143.37
  C 47.33 142.77 47.69 141.98 48.81 140.98
  Q 49.21 140.63 49.70 140.84
  C 53.67 142.57 54.16 139.47 55.69 136.94
  Q 55.94 136.53 56.40 136.40
  Q 57.61 136.05 58.52 134.95
  C 64.03 137.31 71.32 143.41 70.08 150.04
  C 68.26 159.81 51.68 155.07 46.13 151.58
  Q 45.12 150.94 45.48 152.08
  Q 46.24 154.45 49.22 155.84
  C 56.55 159.25 67.58 160.99 72.21 152.50
  L 74.75 153.04
  C 65.49 160.44 77.51 171.75 85.00 174.11
  A 0.40 0.40 0.0 0 0 85.38 173.42
  C 80.81 169.56 73.13 165.04 74.71 157.74
  C 76.63 148.88 90.27 153.35 96.14 156.04
  Q 97.74 156.52 98.36 157.96
  C 99.79 161.27 102.17 165.52 106.02 166.43
  Q 108.68 167.06 109.23 164.75
  Q 109.39 164.08 110.07 163.99
  L 114.42 163.38
  Q 114.94 163.31 115.35 163.00
  L 120.41 159.19
  Q 120.74 158.94 121.16 158.95
  L 122.96 159.00
  Q 122.02 165.36 120.04 171.00
  A 0.62 0.62 0.0 0 0 121.13 171.58
  Q 124.68 166.74 124.98 161.19
  C 125.14 158.27 126.79 157.71 127.55 155.32
  C 132.10 140.94 129.80 129.45 122.56 116.49
  C 120.92 113.56 118.88 111.21 116.34 109.31
  Q 115.12 108.39 116.07 107.19
  Q 122.76 98.80 131.43 94.04
  Z
  M 147.17 130.32
  L 150.50 131.57
  Q 150.90 131.72 151.32 131.63
  C 156.07 130.59 152.37 122.96 150.57 120.42
  Q 150.32 120.06 149.92 119.86
  C 147.55 118.68 145.43 116.71 142.10 115.80
  Q 141.38 115.60 141.14 116.31
  L 139.81 120.20
  Q 139.64 120.68 139.87 121.13
  C 140.83 123.08 143.44 131.38 146.15 130.33
  Q 146.66 130.13 147.17 130.32
  Z
  M 157.82 150.28
  C 155.21 154.94 145.30 155.84 139.99 155.63
  Q 138.35 155.56 138.86 157.51
  Q 138.97 157.94 139.39 158.10
  C 151.08 162.62 172.44 150.04 155.13 137.72
  Q 150.00 134.07 143.42 133.09
  Q 141.50 132.80 141.82 134.71
  Q 141.96 135.50 143.02 135.65
  C 148.28 136.40 162.14 142.56 157.82 150.28
  Z"
/>
<path fill="#45210e" d="
  M 33.62 97.38
  C 22.39 102.63 11.88 109.34 5.37 119.97
  A 0.41 0.40 -22.1 0 1 4.63 119.66
  C 7.82 107.40 23.39 99.00 34.71 95.48
  A 0.32 0.32 0.0 0 1 35.05 95.99
  L 34.45 96.73
  Q 34.11 97.15 33.62 97.38
  Z"
/>
<path fill="#fff9ac" d="
  M 122.96 159.00
  L 121.16 158.95
  Q 120.74 158.94 120.41 159.19
  L 115.35 163.00
  Q 114.94 163.31 114.42 163.38
  L 110.07 163.99
  Q 109.39 164.08 109.23 164.75
  Q 108.68 167.06 106.02 166.43
  C 102.17 165.52 99.79 161.27 98.36 157.96
  Q 97.74 156.52 96.14 156.04
  C 96.30 154.80 95.98 154.76 95.23 154.19
  C 89.51 149.86 80.43 147.77 74.75 153.04
  L 72.21 152.50
  C 76.83 142.42 59.53 130.63 58.52 134.95
  Q 57.61 136.05 56.40 136.40
  Q 55.94 136.53 55.69 136.94
  C 54.16 139.47 53.67 142.57 49.70 140.84
  Q 49.21 140.63 48.81 140.98
  C 47.69 141.98 47.33 142.77 45.88 143.37
  Q 42.03 144.95 38.41 146.97
  C 32.55 150.24 30.91 153.99 23.02 153.50
  C 20.26 153.33 14.03 160.69 12.49 162.84
  Q 12.18 163.27 11.66 163.18
  L 9.10 162.77
  Q 7.18 142.53 20.06 125.27
  Q 26.71 116.35 34.62 111.92
  C 35.22 111.58 35.35 111.14 35.29 110.50
  Q 37.76 110.44 39.71 108.75
  Q 42.48 109.12 43.50 106.54
  L 46.29 105.65
  Q 49.29 104.31 52.17 102.82
  C 69.76 93.74 86.65 93.00 104.22 103.00
  C 107.25 104.73 117.20 112.68 120.05 117.92
  C 127.21 131.08 128.98 144.57 122.96 159.00
  Z
  M 83.4100 116.8050
  A 3.01 2.67 -16.9 0 0 79.7538 115.1253
  A 3.01 2.67 -16.9 0 0 77.6500 118.5550
  A 3.01 2.67 -16.9 0 0 81.3062 120.2347
  A 3.01 2.67 -16.9 0 0 83.4100 116.8050
  Z
  M 87.55 126.68
  C 89.35 130.05 92.47 132.19 95.63 134.17
  Q 96.03 134.42 96.33 134.06
  C 101.47 128.01 93.45 124.12 88.49 124.82
  A 1.27 1.27 0.0 0 0 87.55 126.68
  Z
  M 107.89 139.03
  A 2.72 2.72 0.0 0 0 105.17 136.31
  A 2.72 2.72 0.0 0 0 102.45 139.03
  A 2.72 2.72 0.0 0 0 105.17 141.75
  A 2.72 2.72 0.0 0 0 107.89 139.03
  Z"
/>
<path fill="#45210e" d="
  M 19.68 97.61
  L 4.20 106.92
  Q 3.31 107.45 3.25 106.61
  C 2.93 102.43 16.45 97.43 19.43 96.94
  A 0.36 0.36 0.0 0 1 19.68 97.61
  Z"
/>
<path fill="#45210e" d="
  M 213.31 125.63
  C 212.45 118.47 211.63 111.62 208.53 105.17
  A 0.56 0.56 0.0 0 1 209.42 104.52
  C 214.57 109.28 215.32 119.41 214.24 125.65
  A 0.47 0.47 0.0 0 1 213.31 125.63
  Z"
/>
<path fill="#45210e" d="
  M 219.46 106.14
  A 0.29 0.29 0.0 0 1 219.81 106.37
  L 221.76 115.66
  A 3.13 0.89 78.1 0 1 221.54 118.91
  L 221.23 118.97
  A 3.13 0.89 78.1 0 1 219.71 116.09
  L 217.75 106.80
  A 0.29 0.29 0.0 0 1 217.97 106.46
  L 219.46 106.14
  Z"
/>
<path fill="#45210e" d="
  M 43.50 106.54
  Q 42.48 109.12 39.71 108.75
  Q 41.11 106.80 43.50 106.54
  Z"
/>
<path fill="#45210e" d="
  M 35.29 110.50
  C 35.35 111.14 35.22 111.58 34.62 111.92
  Q 26.71 116.35 20.06 125.27
  Q 7.18 142.53 9.10 162.77
  Q 11.18 169.69 14.42 175.94
  C 18.27 183.37 26.71 188.35 34.27 191.32
  Q 34.76 191.51 35.05 191.07
  Q 35.99 189.63 36.58 189.34
  C 43.52 185.89 53.28 183.78 56.77 192.77
  Q 56.95 193.24 57.45 193.35
  C 58.93 193.65 62.62 193.23 62.75 195.21
  Q 55.24 196.66 52.99 196.75
  Q 44.69 197.10 31.04 193.29
  Q 30.58 193.16 30.30 192.77
  Q 29.72 191.96 28.74 191.61
  C 13.13 186.01 8.61 175.06 5.57 159.94
  C 3.64 150.34 10.72 135.68 16.05 126.57
  Q 22.44 115.66 33.62 109.94
  Q 34.05 109.72 34.52 109.88
  Q 35.04 110.06 35.29 110.50
  Z
  M 53.90 192.05
  C 52.91 187.07 39.93 189.43 37.12 191.66
  A 0.31 0.31 0.0 0 0 37.24 192.21
  Q 44.90 194.19 52.71 193.61
  A 1.31 1.31 0.0 0 0 53.90 192.05
  Z"
/>
<path fill="#421910" d="
  M 154.86 117.08
  Q 149.49 118.61 149.29 114.11
  Q 152.85 112.76 155.66 114.32
  C 157.60 115.39 156.54 116.69 154.86 117.08
  Z"
/>
<ellipse fill="#421910" cx="0.00" cy="0.00" transform="translate(80.53,117.68) rotate(-16.9)" rx="3.01" ry="2.67"/>
<path fill="#fff9ac" d="
  M 146.15 130.33
  C 143.44 131.38 140.83 123.08 139.87 121.13
  Q 139.64 120.68 139.81 120.20
  L 141.14 116.31
  Q 141.38 115.60 142.10 115.80
  C 145.43 116.71 147.55 118.68 149.92 119.86
  Q 150.32 120.06 150.57 120.42
  C 152.37 122.96 156.07 130.59 151.32 131.63
  Q 150.90 131.72 150.50 131.57
  L 147.17 130.32
  Q 146.66 130.13 146.15 130.33
  Z"
/>
<path fill="#be791c" d="
  M 164.16 122.30
  Q 162.63 121.38 161.46 119.50
  C 165.55 114.00 178.73 117.36 176.30 125.28
  Q 176.16 125.74 175.68 125.73
  Q 169.70 125.51 164.16 122.30
  Z
  M 174.2047 122.8128
  A 4.11 1.05 20.7 0 0 170.7311 120.3778
  A 4.11 1.05 20.7 0 0 166.5153 119.9072
  A 4.11 1.05 20.7 0 0 169.9889 122.3422
  A 4.11 1.05 20.7 0 0 174.2047 122.8128
  Z"
/>
<ellipse fill="#f3a74d" cx="0.00" cy="0.00" transform="translate(170.36,121.36) rotate(20.7)" rx="4.11" ry="1.05"/>
<ellipse fill="#421910" cx="0.00" cy="0.00" transform="translate(184.08,126.94) rotate(38.6)" rx="3.36" ry="1.82"/>
<path fill="#be791c" d="
  M 95.63 134.17
  C 92.47 132.19 89.35 130.05 87.55 126.68
  A 1.27 1.27 0.0 0 1 88.49 124.82
  C 93.45 124.12 101.47 128.01 96.33 134.06
  Q 96.03 134.42 95.63 134.17
  Z
  M 90.20 127.24
  L 95.35 131.86
  A 0.16 0.16 0.0 0 0 95.58 131.85
  L 95.60 131.82
  A 3.45 2.00 41.9 0 0 94.37 128.02
  L 94.12 127.80
  A 3.45 2.00 41.9 0 0 90.21 126.98
  L 90.19 127.01
  A 0.16 0.16 0.0 0 0 90.20 127.24
  Z"
/>
<path fill="#f3a74d" d="
  M 90.20 127.24
  A 0.16 0.16 0.0 0 1 90.19 127.01
  L 90.21 126.98
  A 3.45 2.00 41.9 0 1 94.12 127.80
  L 94.37 128.02
  A 3.45 2.00 41.9 0 1 95.60 131.82
  L 95.58 131.85
  A 0.16 0.16 0.0 0 1 95.35 131.86
  L 90.20 127.24
  Z"
/>
<path fill="#45210e" d="
  M 157.82 150.28
  C 162.14 142.56 148.28 136.40 143.02 135.65
  Q 141.96 135.50 141.82 134.71
  Q 141.50 132.80 143.42 133.09
  Q 150.00 134.07 155.13 137.72
  C 172.44 150.04 151.08 162.62 139.39 158.10
  Q 138.97 157.94 138.86 157.51
  Q 138.35 155.56 139.99 155.63
  C 145.30 155.84 155.21 154.94 157.82 150.28
  Z"
/>
<path fill="#45210e" d="
  M 72.21 152.50
  C 67.58 160.99 56.55 159.25 49.22 155.84
  Q 46.24 154.45 45.48 152.08
  Q 45.12 150.94 46.13 151.58
  C 51.68 155.07 68.26 159.81 70.08 150.04
  C 71.32 143.41 64.03 137.31 58.52 134.95
  C 59.53 130.63 76.83 142.42 72.21 152.50
  Z"
/>
<circle fill="#421910" cx="105.17" cy="139.03" r="2.72"/>
<path fill="#45210e" d="
  M 96.14 156.04
  C 90.27 153.35 76.63 148.88 74.71 157.74
  C 73.13 165.04 80.81 169.56 85.38 173.42
  A 0.40 0.40 0.0 0 1 85.00 174.11
  C 77.51 171.75 65.49 160.44 74.75 153.04
  C 80.43 147.77 89.51 149.86 95.23 154.19
  C 95.98 154.76 96.30 154.80 96.14 156.04
  Z"
/>
<path fill="#f3a74d" d="
  M 197.35 189.18
  Q 200.62 186.90 203.69 190.69
  Q 204.03 191.11 203.59 191.42
  C 200.27 193.75 196.09 193.35 191.00 193.42
  Q 190.16 193.43 190.91 193.05
  C 193.34 191.80 194.52 191.15 197.35 189.18
  Z"
/>
<path fill="#f3a74d" d="
  M 37.12 191.66
  C 39.93 189.43 52.91 187.07 53.90 192.05
  A 1.31 1.31 0.0 0 1 52.71 193.61
  Q 44.90 194.19 37.24 192.21
  A 0.31 0.31 0.0 0 1 37.12 191.66
  Z"
/>
<path fill="#f3a74d" d="
  M 127.25 193.71
  L 127.54 193.00
  Q 128.66 192.91 129.03 192.59
  Q 137.24 185.55 144.84 193.27
  A 0.90 0.90 0.0 0 1 144.70 194.65
  Q 144.57 194.73 144.40 194.86
  Q 144.01 195.13 143.54 195.15
  Q 135.31 195.45 127.25 193.71
  Z"
/>
<path fill="#f3a74d" d="
  M 81.78 195.10
  C 78.67 196.88 71.58 195.79 68.18 194.71
  Q 67.71 194.56 68.03 194.19
  C 71.61 189.97 77.52 190.80 81.74 193.01
  A 1.19 1.19 0.0 0 1 81.78 195.10
  Z"
/>
</svg>
